<?xml version="1.0" standalone="no"?>
<!DOCTYPE svg PUBLIC "-//W3C//DTD SVG 20010904//EN"
 "http://www.w3.org/TR/2001/REC-SVG-20010904/DTD/svg10.dtd">
<svg version="1.0" xmlns="http://www.w3.org/2000/svg"
 width="500.000000pt" height="500.000000pt" viewBox="0 0 500.000000 500.000000"
 preserveAspectRatio="xMidYMid meet">

<g transform="translate(0.000000,500.000000) scale(0.100000,-0.100000)"
fill="#000000" stroke="none">
<path d="M410 2495 l0 -575 590 0 590 0 0 575 0 575 -590 0 -590 0 0 -575z
m1138 3 l-3 -533 -545 0 -545 0 -3 533 -2 532 550 0 550 0 -2 -532z"/>
<path d="M900 2817 c0 -52 -3 -97 -6 -100 -4 -4 -42 18 -86 48 -44 30 -81 55
-83 55 -1 0 -5 -7 -8 -14 -4 -9 -1 -13 6 -10 7 2 48 -20 91 -50 44 -30 83 -53
88 -50 4 3 8 50 8 105 l0 99 95 0 95 0 0 -105 c0 -58 4 -105 8 -105 5 0 42 23
83 51 41 28 79 53 85 56 10 4 114 -138 114 -155 0 -4 -45 -36 -100 -72 -55
-36 -100 -68 -100 -72 0 -3 44 -37 98 -74 53 -37 99 -71 100 -76 2 -4 8 -5 13
-2 6 3 -35 37 -90 76 -56 38 -101 72 -101 76 0 4 43 36 95 71 52 35 95 68 95
72 0 9 -63 107 -100 156 l-17 22 -79 -54 -79 -55 -5 98 -5 97 -107 3 -108 3 0
-94z"/>
<path d="M966 2798 c-20 -28 -20 -47 -1 -72 20 -27 21 -156 1 -156 -23 0 -76
22 -76 31 0 5 14 9 30 9 34 0 52 26 29 41 -20 13 -26 11 -49 -13 -29 -31 -25
-54 10 -67 28 -9 30 -12 18 -31 -11 -18 -10 -23 4 -34 15 -11 16 -15 3 -34
-14 -19 -11 -52 4 -52 3 0 13 -4 21 -10 12 -7 12 -12 -4 -29 -18 -20 -18 -22
-2 -40 14 -16 15 -23 6 -41 -9 -16 -9 -25 -1 -33 6 -6 11 -23 11 -38 0 -29 24
-41 61 -32 16 4 19 11 15 29 -4 13 -1 32 6 43 9 15 9 23 -1 35 -12 14 -11 19
3 34 20 23 20 38 1 46 -22 8 -18 21 10 34 29 13 32 38 8 64 -14 16 -15 18 0
18 25 0 31 19 11 41 -16 18 -16 19 14 30 37 13 42 39 12 69 -22 22 -29 24 -49
11 -23 -15 -5 -41 30 -41 42 0 33 -22 -15 -33 -20 -5 -40 -7 -43 -3 -6 6 9
125 22 179 15 56 -57 91 -89 45z m72 0 c15 -15 15 -51 0 -66 -18 -18 -56 -14
-68 7 -14 27 -13 37 6 55 18 19 45 21 62 4z m-18 -158 c0 -56 -3 -70 -15 -70
-12 0 -15 14 -15 70 0 56 3 70 15 70 12 0 15 -14 15 -70z m-70 -11 c0 -5 -9
-9 -20 -9 -22 0 -27 16 -7 23 15 5 27 -1 27 -14z m150 0 c0 -5 -9 -9 -20 -9
-22 0 -27 16 -7 23 15 5 27 -1 27 -14z m-85 -116 c-7 -17 -8 -17 -15 2 -9 24
-2 41 12 27 6 -6 7 -19 3 -29z m-32 12 c4 -8 3 -17 -2 -19 -10 -7 -51 4 -51
13 0 24 45 29 53 6z m97 5 c11 -7 9 -11 -13 -19 -37 -14 -37 -14 -37 9 0 21
24 27 50 10z m-92 -79 c5 -34 -10 -42 -38 -20 -25 19 -25 20 -5 34 25 19 39
15 43 -14z m83 13 c11 -14 10 -19 -10 -36 -29 -23 -45 -11 -35 26 7 30 25 34
45 10z m-81 -104 c0 -11 -7 -20 -15 -20 -8 0 -15 9 -15 20 0 11 7 20 15 20 8
0 15 -9 15 -20z m65 0 c0 -8 -8 -16 -17 -18 -13 -2 -18 3 -18 18 0 15 5 20 18
18 9 -2 17 -10 17 -18z m-57 -77 c-5 -25 -28 -28 -28 -4 0 12 6 21 16 21 9 0
14 -7 12 -17z m45 11 c8 -8 -3 -34 -14 -34 -5 0 -9 9 -9 20 0 19 11 26 23 14z"/>
<path d="M653 2709 c-27 -41 -43 -73 -37 -77 5 -4 49 -34 97 -66 48 -32 86
-64 84 -70 -2 -6 -41 -37 -87 -69 -105 -71 -107 -74 -91 -89 10 -11 11 -10 7
2 -4 11 23 34 92 80 53 36 97 71 97 77 0 6 -38 37 -85 68 -46 31 -90 61 -97
66 -9 8 -2 27 32 80 25 38 43 69 40 69 -3 0 -26 -32 -52 -71z"/>
<path d="M1338 2265 c-24 -35 -49 -65 -56 -65 -7 0 -46 23 -87 50 -41 28 -79
50 -84 50 -6 0 -11 -42 -13 -102 l-3 -103 -90 0 -90 0 -3 103 c-1 56 -7 102
-12 102 -5 0 -43 -22 -83 -50 -41 -27 -78 -50 -82 -50 -5 0 -17 8 -28 18 -20
17 -20 17 -2 -10 9 -16 20 -28 23 -28 3 0 38 23 79 50 40 28 78 50 83 50 6 0
10 -42 10 -100 l0 -101 108 3 107 3 3 98 c1 53 6 97 9 97 4 0 39 -22 79 -50
40 -27 75 -50 78 -50 3 0 28 34 56 75 28 41 48 75 45 75 -3 0 -24 -29 -47 -65z"/>
<path d="M650 2287 c12 -20 27 -40 32 -44 14 -8 -23 55 -40 70 -8 6 -4 -6 8
-26z"/>
<path d="M1830 2490 l0 -511 133 3 132 3 3 198 2 197 175 0 175 0 0 -200 0
-201 133 3 132 3 0 505 0 505 -132 3 -133 3 -2 -193 -3 -193 -170 0 -170 0 -5
190 -5 190 -132 3 -133 3 0 -511z"/>
<path d="M3092 2988 c-6 -7 -22 -56 -37 -108 -14 -52 -37 -129 -50 -170 -13
-41 -42 -136 -64 -210 -22 -74 -65 -218 -96 -320 -30 -101 -55 -188 -55 -192
0 -5 63 -8 139 -8 124 0 140 2 145 18 2 9 14 50 26 90 l21 72 182 0 183 0 18
-72 c29 -116 18 -108 166 -108 119 0 130 1 130 18 0 10 -15 68 -34 128 -47
150 -96 313 -146 479 -23 77 -57 190 -76 250 -19 61 -34 116 -34 122 0 20 -30
23 -220 23 -138 0 -190 -3 -198 -12z m277 -427 l58 -201 -123 0 c-68 0 -124 2
-124 4 0 2 25 91 55 197 30 106 55 200 55 208 0 45 27 -27 79 -208z"/>
<path d="M4070 2994 c-76 -15 -121 -37 -159 -80 -47 -54 -61 -104 -61 -222 0
-155 40 -232 139 -267 25 -8 126 -23 225 -32 109 -9 190 -21 204 -30 30 -18
32 -99 3 -134 -18 -22 -27 -24 -133 -27 -135 -3 -157 5 -178 66 l-14 42 -125
0 -124 0 6 -72 c7 -94 30 -150 79 -192 61 -53 107 -61 333 -61 161 0 211 3
255 17 76 24 134 64 162 112 21 38 23 52 23 181 0 155 -7 180 -67 230 -56 47
-102 58 -316 75 -79 6 -154 16 -167 22 -29 13 -46 58 -38 100 9 43 51 58 166
58 106 0 125 -9 136 -60 l7 -35 127 -3 127 -3 0 62 c0 86 -18 137 -65 184 -60
60 -92 67 -320 70 -110 2 -211 1 -225 -1z"/>
</g>
</svg>
